<?xml version="1.0" standalone="no"?><!DOCTYPE svg PUBLIC "-//W3C//DTD SVG 1.1//EN" "http://www.w3.org/Graphics/SVG/1.1/DTD/svg11.dtd"><svg t="1539765118959" class="icon" style="" viewBox="0 0 1024 1024" version="1.1" xmlns="http://www.w3.org/2000/svg" p-id="2005" xmlns:xlink="http://www.w3.org/1999/xlink" width="48" height="48"><defs><style type="text/css"></style></defs><path d="M876.78464 590.42816c-60.14976 87.58272-142.80704 192.77824-214.9888 254.89408-52.33152 45.03552-149.02784 114.72896-225.20832 101.95456C240.32256 914.4064 282.112 433.78688 149.92896 325.35552c-60.4416-17.53088-89.6 75.15648-122.84416 20.38784-52.224-43.47904 50.3296-119.39328 102.36928-163.11808 64.34304-54.06208 140.20096-131.072 225.21856-97.59744 165.54496 65.1776 46.87872 460.2368 204.74368 546.2016 81.5872-65.44384 172.99456-173.59872 153.55904-305.84832-15.45728-44.16512-90.20928-30.14656-133.07904-20.39808-2.20672-201.71264 396.9792-356.33664 429.952-81.5616 17.93024 168.19712-133.06368 367.00672-133.06368 367.00672z" p-id="2006" fill="#409eff"></path></svg>